<?xml version="1.0" standalone="no"?>
<!DOCTYPE svg PUBLIC "-//W3C//DTD SVG 20010904//EN"
 "http://www.w3.org/TR/2001/REC-SVG-20010904/DTD/svg10.dtd">
<svg version="1.0" xmlns="http://www.w3.org/2000/svg"
 width="512.000000pt" height="512.000000pt" viewBox="0 0 512.000000 512.000000"
 preserveAspectRatio="xMidYMid meet">
<g transform="translate(0.000000,512.000000) scale(0.100000,-0.100000)"
fill="#FFF" stroke="none">
<path d="M2615 3808 c-3 -7 -86 -247 -186 -533 -99 -286 -183 -522 -185 -525
-3 -2 -241 234 -528 525 -288 292 -526 528 -529 525 -7 -7 -867 -2476 -867
-2489 0 -8 124 -11 405 -11 375 0 405 1 413 18 6 9 89 247 187 527 98 281 181
513 184 518 6 6 957 -938 1024 -1018 17 -19 29 -26 35 -20 5 6 146 403 313
883 l303 874 171 -174 c93 -96 195 -199 225 -231 l55 -57 -307 -308 -307 -307
350 -352 350 -353 540 0 c296 0 539 3 539 7 0 5 -154 162 -342 350 l-343 343
65 67 c36 37 174 178 307 313 l242 245 -422 425 c-232 234 -498 503 -592 598
l-169 172 -463 0 c-362 0 -465 -3 -468 -12z"/>
</g>
</svg>
